HIERARCHY
ROOT Pelvis
{
	OFFSET 0.000000 0.000000 0.000000
	CHANNELS 6 Xposition Yposition Zposition Xrotation Yrotation Zrotation
	JOINT LeftUpLeg_virtual
	{
		OFFSET 0.000000 0.000000 0.000000
		CHANNELS 3 Xrotation Yrotation Zrotation
		JOINT LeftUpLeg
		{
			OFFSET 18.735201 -5.666702 -4.541200
			CHANNELS 3 Xrotation Yrotation Zrotation
			JOINT LeftLeg
			{
				OFFSET -0.021200 -31.938179 0.493100
				CHANNELS 3 Xrotation Yrotation Zrotation
				JOINT LeftFoot
				{
					OFFSET 0.021200 -31.938179 -4.336299
					CHANNELS 3 Xrotation Yrotation Zrotation
					JOINT LeftToeBase
					{
						OFFSET 0.943001 -26.722000 15.023500
						CHANNELS 3 Xrotation Yrotation Zrotation
						End Site
						{
							OFFSET 0 0 0
						}
					}
				}
			}
		}
	}
	JOINT RightUpLeg_virtual
	{
		OFFSET 0.000000 0.000000 0.000000
		CHANNELS 3 Xrotation Yrotation Zrotation
		JOINT RightUpLeg
		{
			OFFSET -18.735201 -5.666702 -4.541200
			CHANNELS 3 Xrotation Yrotation Zrotation
			JOINT RightLeg
			{
				OFFSET 0.018946 -31.938133 0.493100
				CHANNELS 3 Xrotation Yrotation Zrotation
				JOINT RightFoot
				{
					OFFSET -0.018946 -31.938126 -4.336299
					CHANNELS 3 Xrotation Yrotation Zrotation
					JOINT RightToeBase
					{
						OFFSET -0.943001 -26.722004 15.023500
						CHANNELS 3 Xrotation Yrotation Zrotation
						End Site
						{
							OFFSET 0 0 0
						}
					}
				}
			}
		}
	}
	JOINT Hips_virtual
	{
		OFFSET 0.000000 0.000000 0.000000
		CHANNELS 3 Xrotation Yrotation Zrotation
		JOINT Hips
		{
			OFFSET -0.000000 -0.000000 -0.000000
			CHANNELS 3 Xrotation Yrotation Zrotation
			JOINT Spine
			{
				OFFSET 0.000000 10.199997 -0.299500
				CHANNELS 3 Xrotation Yrotation Zrotation
				JOINT Spine1
				{
					OFFSET 0.000000 11.900002 -1.516600
					CHANNELS 3 Xrotation Yrotation Zrotation
					JOINT Spine2
					{
						OFFSET 0.000000 13.600006 -2.842500
						CHANNELS 3 Xrotation Yrotation Zrotation
						JOINT Neck_virtual
						{
							OFFSET 0.000000 0.000000 0.000000
							CHANNELS 3 Xrotation Yrotation Zrotation
							JOINT Neck
							{
								OFFSET 0.000000 9.624100 -2.890100
								CHANNELS 3 Xrotation Yrotation Zrotation
								JOINT Head
								{
									OFFSET 0.000000 14.068802 -1.351900
									CHANNELS 3 Xrotation Yrotation Zrotation
									End Site
									{
										OFFSET 0 0 0
									}
								}
							}
						}
						JOINT LeftShoulder_virtual
						{
							OFFSET 0.000000 0.000000 0.000000
							CHANNELS 3 Xrotation Yrotation Zrotation
							JOINT LeftShoulder
							{
								OFFSET 15.263000 10.923401 -0.547700
								CHANNELS 3 Xrotation Yrotation Zrotation
								JOINT LeftArm
								{
									OFFSET 25.438599 -2.830597 -13.032500
									CHANNELS 3 Xrotation Yrotation Zrotation
									JOINT LeftForeArm
									{
										OFFSET 29.960503 0.000000 0.000000
										CHANNELS 3 Xrotation Yrotation Zrotation
										JOINT LeftHand
										{
											OFFSET 27.849251 0.000000 0.000000
											CHANNELS 3 Xrotation Yrotation Zrotation
											End Site
											{
												OFFSET 0 0 0
											}
										}
									}
								}
							}
						}
						JOINT RightShoulder_virtual
						{
							OFFSET 0.000000 0.000000 0.000000
							CHANNELS 3 Xrotation Yrotation Zrotation
							JOINT RightShoulder
							{
								OFFSET -15.263000 10.923401 -0.547700
								CHANNELS 3 Xrotation Yrotation Zrotation
								JOINT RightArm
								{
									OFFSET -25.438599 -2.830597 -13.032500
									CHANNELS 3 Xrotation Yrotation Zrotation
									JOINT RightForeArm
									{
										OFFSET -29.960503 0.000000 0.000000
										CHANNELS 3 Xrotation Yrotation Zrotation
										JOINT RightHand
										{
											OFFSET -27.849251 0.000000 0.000000
											CHANNELS 3 Xrotation Yrotation Zrotation
											End Site
											{
												OFFSET 0 0 0
											}
										}
									}
								}
							}
						}
					}
				}
			}
		}
	}
}
MOTION
Frames: 10
Frame Time: 0.03333333
0.533655 70.351440 125.197929 0.000000 0.000000 0.000000 5.781641 -36.550456 -1.155858 25.657110 20.981774 -0.138276 9.989653 -5.885731 12.121967 3.861660 -6.399198 -31.312814 0.000000 0.000000 0.000000 5.664480 -35.532970 -2.879662 -78.844521 2.645807 -23.210475 42.518423 15.897217 20.541008 21.056409 2.077500 -3.705986 0.000000 0.000000 0.000000 4.397479 -33.390179 -2.492691 -0.615558 0.131452 0.115713 -0.373279 -10.244885 3.084550 8.623244 -1.280557 1.010162 0.000000 0.000000 0.000000 3.266729 -1.403586 2.006777 3.255489 -4.039169 0.046870 0.000000 0.000000 0.000000 11.573222 -2.173781 2.593013 -11.480097 -14.111586 -24.676012 -22.818590 2.312627 -9.209901 -88.647379 -63.624148 -57.846593 0.000000 0.000000 0.000000 4.199135 -0.485740 1.637588 -1.679747 3.793114 -2.592722 -23.775928 16.450524 10.817053 44.757004 61.906827 -30.086731 0.000000 0.000000 0.000000 
0.310069 68.945190 129.834900 0.000000 0.000000 0.000000 8.845890 -40.883416 -1.716829 30.964085 27.173640 -0.885407 2.755047 -8.693356 11.603766 3.646147 -9.837173 -36.176992 0.000000 0.000000 0.000000 8.039653 -39.932909 -3.812574 -83.432639 1.940388 -18.697119 47.286865 13.823481 21.737989 11.789754 -0.609195 -5.170886 0.000000 0.000000 0.000000 8.024723 -37.941202 -2.755310 -0.535874 0.102070 0.032691 -3.503687 -10.556390 1.975122 9.577665 -3.646957 3.537171 0.000000 0.000000 0.000000 4.865330 -3.992243 4.041394 2.256710 -4.670751 0.287183 0.000000 0.000000 0.000000 12.031548 -4.729362 4.387320 -12.691227 -19.264950 -24.314365 -23.937902 -9.233603 -15.548241 -56.914634 -54.892516 -28.308363 0.000000 0.000000 0.000000 6.034937 -3.017363 4.217533 -2.227769 1.109309 1.757193 -18.552877 -0.022042 7.813349 36.094879 56.675533 -18.965560 0.000000 0.000000 0.000000 
-0.130462 68.065292 134.957092 0.000000 0.000000 0.000000 11.814375 -44.999742 -2.235005 32.935548 33.759651 0.066704 1.163150 -10.464462 10.874586 9.400183 -14.524423 -36.296008 0.000000 0.000000 0.000000 10.681696 -44.305163 -4.206315 -87.161594 2.090166 -13.865567 53.371132 11.346190 21.335747 2.116264 -1.640132 -5.123113 0.000000 0.000000 0.000000 12.058709 -42.582138 -2.230889 -0.494160 0.079840 0.007868 -6.550029 -9.741435 0.438562 10.696581 -5.183557 5.980181 0.000000 0.000000 0.000000 6.625017 -5.731471 6.070635 1.404921 -5.405454 0.615488 0.000000 0.000000 0.000000 12.432012 -6.488616 6.037589 -13.031170 -24.276849 -21.639868 -27.363341 -19.096596 -24.932528 -40.502725 -42.364392 -14.626758 0.000000 0.000000 0.000000 7.864793 -4.731358 6.614693 -2.270124 -0.821393 4.565257 -16.962666 -13.315853 7.081278 34.227898 56.001623 -15.685208 0.000000 0.000000 0.000000 
-0.700431 67.951797 140.568848 0.000000 0.000000 0.000000 14.421816 -49.841352 -2.492821 31.924328 39.195761 2.715525 4.598856 -12.163186 10.633186 21.015601 -20.102724 -31.987193 0.000000 0.000000 0.000000 13.408445 -49.372627 -3.948779 -88.285140 3.045330 -7.395836 57.579246 8.865430 19.901424 -3.162977 -0.693269 -1.696581 0.000000 0.000000 0.000000 15.639728 -47.823547 -1.139036 -0.518922 0.118096 0.013461 -9.236665 -8.024789 -1.114505 11.792793 -6.077091 8.016517 0.000000 0.000000 0.000000 8.088667 -6.880095 7.826351 0.849230 -6.166194 1.026200 0.000000 0.000000 0.000000 12.561309 -7.624496 7.297580 -12.265515 -28.554876 -17.294920 -33.429852 -24.640466 -36.628706 -32.215041 -32.979749 -9.343347 0.000000 0.000000 0.000000 9.252318 -5.865318 8.583435 -1.810011 -1.505285 5.510040 -17.395165 -22.035589 8.027175 34.846013 57.344383 -16.100822 0.000000 0.000000 0.000000 
-1.476512 68.791512 146.381378 0.000000 0.000000 0.000000 16.388885 -55.368758 -2.297348 28.756736 42.270784 6.735845 10.887074 -14.259932 11.263977 34.198716 -24.537084 -24.573832 0.000000 0.000000 0.000000 15.853339 -54.775566 -3.225649 -86.787512 4.082329 -0.286605 58.334562 6.334553 17.855895 -4.020854 1.572620 4.650876 0.000000 0.000000 0.000000 18.086184 -53.388826 -0.026701 -0.597256 0.197468 0.011381 -11.296050 -6.060074 -2.134982 12.560562 -6.653629 9.328636 0.000000 0.000000 0.000000 9.051751 -7.766418 8.999157 0.655776 -6.841170 1.475761 0.000000 0.000000 0.000000 12.369386 -8.431173 7.949506 -10.468523 -31.574441 -11.882334 -39.825177 -25.390509 -47.695368 -27.606101 -28.831031 -7.665658 0.000000 0.000000 0.000000 9.824735 -6.742506 9.854992 -0.910415 -0.656163 4.562396 -19.090070 -26.347545 10.436500 35.207668 56.892102 -17.464490 0.000000 0.000000 0.000000 
-2.536419 70.659203 152.644928 0.000000 0.000000 0.000000 17.199256 -60.780337 -1.977123 22.991643 42.892352 12.043166 20.310169 -15.998292 13.123915 45.509007 -25.447533 -15.498075 0.000000 0.000000 0.000000 17.131877 -60.021913 -2.575271 -82.376999 4.658290 6.618907 55.900946 3.454585 15.380650 -2.391154 4.147712 11.258860 0.000000 0.000000 0.000000 18.838242 -58.636976 0.445555 -0.698573 0.323222 -0.007238 -12.701033 -4.494695 -2.548007 13.014312 -7.243530 9.873832 0.000000 0.000000 0.000000 9.516539 -8.595810 9.484286 0.831602 -7.393634 1.925675 0.000000 0.000000 0.000000 11.842655 -9.167186 7.943963 -7.989333 -33.123388 -6.150949 -44.588626 -22.956612 -55.915733 -24.424736 -28.213888 -7.141005 0.000000 0.000000 0.000000 9.412176 -7.672846 10.412338 0.398662 1.193661 2.426532 -21.510620 -27.292357 14.030753 33.088636 52.633554 -17.742123 0.000000 0.000000 0.000000 
-3.906483 73.052742 159.125885 0.000000 0.000000 0.000000 16.185685 -64.929636 -2.103051 13.353597 42.279175 19.067219 35.444116 -15.412920 16.165955 50.144804 -21.121166 -6.316288 0.000000 0.000000 0.000000 16.423415 -64.228217 -2.687353 -75.174770 4.708295 11.835231 51.768848 -0.263837 12.582652 -1.836438 4.847335 15.221879 0.000000 0.000000 0.000000 17.398770 -62.615575 -0.273306 -0.784186 0.431595 -0.071315 -13.483838 -3.665421 -2.620615 13.183853 -7.896515 9.697981 0.000000 0.000000 0.000000 9.604475 -9.468859 9.311168 1.257254 -7.758229 2.308764 0.000000 0.000000 0.000000 11.092232 -9.890610 7.456098 -5.315772 -33.095371 -0.814210 -47.658144 -20.182002 -60.702459 -21.868633 -29.310770 -6.833631 0.000000 0.000000 0.000000 8.162278 -8.667996 10.261408 1.976438 3.649761 0.022914 -24.398496 -26.042581 17.649412 29.366982 45.322400 -17.719355 0.000000 0.000000 0.000000 
-5.662402 75.806076 165.263077 0.000000 0.000000 0.000000 13.703034 -67.235706 -2.456291 0.046464 40.056215 27.626189 54.245608 -12.048551 18.723476 44.926430 -14.641902 1.492840 0.000000 0.000000 0.000000 13.695717 -66.435679 -3.647496 -66.992681 5.165267 14.748457 48.126981 -4.532263 9.214066 -3.954003 2.778306 15.494595 0.000000 0.000000 0.000000 14.255806 -64.762269 -1.783553 -0.798304 0.515538 -0.120761 -13.569130 -3.579967 -2.688894 13.168790 -8.511882 8.931388 0.000000 0.000000 0.000000 9.568431 -10.186734 8.623139 1.816985 -7.886714 2.567402 0.000000 0.000000 0.000000 10.261844 -10.526033 6.655814 -2.844573 -31.624309 3.923159 -49.864629 -18.893195 -62.511462 -19.462797 -31.513564 -6.462007 0.000000 0.000000 0.000000 6.523003 -9.531743 9.511261 3.470529 5.739975 -1.839080 -28.724876 -23.524025 19.844322 26.049744 38.896469 -19.131928 0.000000 0.000000 0.000000 
-7.491012 78.386734 170.824905 0.000000 0.000000 0.000000 10.609605 -67.829325 -2.514782 -14.951026 35.624433 36.234198 71.156672 -8.334498 19.108696 32.157384 -10.304458 6.751759 0.000000 0.000000 0.000000 10.028059 -66.748543 -4.343915 -59.327057 7.225130 16.099997 45.265825 -8.137320 5.188633 -8.280863 -0.576277 13.314165 0.000000 0.000000 0.000000 10.589503 -64.972810 -2.925040 -0.758383 0.521924 -0.144922 -12.895802 -4.158755 -2.933696 12.987514 -8.918076 7.735614 0.000000 0.000000 0.000000 9.535877 -10.559801 7.643199 2.284840 -7.788959 2.628837 0.000000 0.000000 0.000000 9.462270 -10.867267 5.790599 -0.905224 -28.802064 7.879424 -52.392308 -19.736197 -61.778781 -16.960905 -35.379868 -5.986721 0.000000 0.000000 0.000000 4.929750 -10.008095 8.339614 4.557505 6.506084 -2.722177 -35.498634 -19.831948 20.377096 24.196577 36.768896 -22.487281 0.000000 0.000000 0.000000 
-9.191444 80.141998 175.594955 0.000000 0.000000 0.000000 7.857636 -66.924236 -1.783073 -28.652247 29.458025 43.024646 81.558988 -6.331103 17.950765 17.802914 -8.813998 7.828030 0.000000 0.000000 0.000000 7.281500 -65.690232 -3.563536 -52.666981 10.322247 14.997166 43.562393 -9.973561 1.109438 -14.467304 -3.230501 11.030545 0.000000 0.000000 0.000000 7.528559 -63.761462 -2.723628 -0.729027 0.462052 -0.073101 -11.311125 -5.146371 -3.250730 12.701336 -8.922688 6.262761 0.000000 0.000000 0.000000 9.499195 -10.417282 6.506288 2.449940 -7.479957 2.477476 0.000000 0.000000 0.000000 8.843928 -10.711004 5.001762 0.388437 -24.599256 11.313000 -55.349978 -22.086224 -58.435465 -14.542712 -42.684065 -5.620015 0.000000 0.000000 0.000000 3.814304 -9.856103 6.899727 5.024508 5.386791 -3.381832 -45.584262 -14.043327 20.100016 25.070568 40.514281 -28.422365 0.000000 0.000000 0.000000 
